<mxfile host="app.diagrams.net" agent="Mozilla/5.0 (Windows NT 10.0; Win64; x64; rv:133.0) Gecko/20100101 Firefox/133.0" version="26.1.1">
  <diagram name="Page-1" id="2YBvvXClWsGukQMizWep">
    <mxGraphModel dx="1073" dy="419" grid="1" gridSize="10" guides="1" tooltips="1" connect="1" arrows="1" fold="1" page="1" pageScale="1" pageWidth="850" pageHeight="1100" math="0" shadow="0">
      <root>
        <mxCell id="0" />
        <mxCell id="1" parent="0" />
        <mxCell id="aM9ryv3xv72pqoxQDRHE-1" value="Backend : express.js API" style="shape=umlLifeline;perimeter=lifelinePerimeter;whiteSpace=wrap;html=1;container=0;dropTarget=0;collapsible=0;recursiveResize=0;outlineConnect=0;portConstraint=eastwest;newEdgeStyle={&quot;edgeStyle&quot;:&quot;elbowEdgeStyle&quot;,&quot;elbow&quot;:&quot;vertical&quot;,&quot;curved&quot;:0,&quot;rounded&quot;:0};" parent="1" vertex="1">
          <mxGeometry x="330" y="40" width="110" height="300" as="geometry" />
        </mxCell>
        <mxCell id="aM9ryv3xv72pqoxQDRHE-2" value="" style="html=1;points=[];perimeter=orthogonalPerimeter;outlineConnect=0;targetShapes=umlLifeline;portConstraint=eastwest;newEdgeStyle={&quot;edgeStyle&quot;:&quot;elbowEdgeStyle&quot;,&quot;elbow&quot;:&quot;vertical&quot;,&quot;curved&quot;:0,&quot;rounded&quot;:0};" parent="aM9ryv3xv72pqoxQDRHE-1" vertex="1">
          <mxGeometry x="50" y="80" width="10" height="60" as="geometry" />
        </mxCell>
        <mxCell id="aM9ryv3xv72pqoxQDRHE-5" value="&lt;div&gt;Database :&lt;/div&gt;&lt;div&gt;Mongodb instance&lt;br&gt;&lt;/div&gt;" style="shape=umlLifeline;perimeter=lifelinePerimeter;whiteSpace=wrap;html=1;container=0;dropTarget=0;collapsible=0;recursiveResize=0;outlineConnect=0;portConstraint=eastwest;newEdgeStyle={&quot;edgeStyle&quot;:&quot;elbowEdgeStyle&quot;,&quot;elbow&quot;:&quot;vertical&quot;,&quot;curved&quot;:0,&quot;rounded&quot;:0};" parent="1" vertex="1">
          <mxGeometry x="510" y="40" width="110" height="380" as="geometry" />
        </mxCell>
        <mxCell id="nJtNr3qltd3_9Drh_FAR-24" value="" style="html=1;points=[];perimeter=orthogonalPerimeter;outlineConnect=0;targetShapes=umlLifeline;portConstraint=eastwest;newEdgeStyle={&quot;edgeStyle&quot;:&quot;elbowEdgeStyle&quot;,&quot;elbow&quot;:&quot;vertical&quot;,&quot;curved&quot;:0,&quot;rounded&quot;:0};" parent="aM9ryv3xv72pqoxQDRHE-5" vertex="1">
          <mxGeometry x="50" y="300" width="10" height="40" as="geometry" />
        </mxCell>
        <mxCell id="aM9ryv3xv72pqoxQDRHE-7" value="GET search.pl (paginated, selective search)" style="html=1;verticalAlign=bottom;endArrow=block;edgeStyle=elbowEdgeStyle;elbow=vertical;curved=0;rounded=0;" parent="1" source="aM9ryv3xv72pqoxQDRHE-2" target="nJtNr3qltd3_9Drh_FAR-3" edge="1">
          <mxGeometry relative="1" as="geometry">
            <mxPoint x="395" y="130" as="sourcePoint" />
            <Array as="points">
              <mxPoint x="480" y="130" />
            </Array>
          </mxGeometry>
        </mxCell>
        <mxCell id="aM9ryv3xv72pqoxQDRHE-9" value="returns the  list of matching products with minimal information" style="html=1;verticalAlign=bottom;endArrow=open;edgeStyle=elbowEdgeStyle;elbow=vertical;curved=0;rounded=0;jumpStyle=arc;dashed=1;endFill=0;" parent="1" source="nJtNr3qltd3_9Drh_FAR-3" target="aM9ryv3xv72pqoxQDRHE-2" edge="1">
          <mxGeometry relative="1" as="geometry">
            <mxPoint x="475" y="170" as="sourcePoint" />
            <Array as="points">
              <mxPoint x="490" y="170" />
            </Array>
            <mxPoint x="395" y="170" as="targetPoint" />
          </mxGeometry>
        </mxCell>
        <mxCell id="nJtNr3qltd3_9Drh_FAR-2" value="&lt;div&gt;Open Food Facts :&lt;/div&gt;&lt;div&gt;remote API&lt;br&gt;&lt;/div&gt;" style="shape=umlLifeline;perimeter=lifelinePerimeter;whiteSpace=wrap;html=1;container=0;dropTarget=0;collapsible=0;recursiveResize=0;outlineConnect=0;portConstraint=eastwest;newEdgeStyle={&quot;edgeStyle&quot;:&quot;elbowEdgeStyle&quot;,&quot;elbow&quot;:&quot;vertical&quot;,&quot;curved&quot;:0,&quot;rounded&quot;:0};" parent="1" vertex="1">
          <mxGeometry x="690" y="40" width="110" height="380" as="geometry" />
        </mxCell>
        <mxCell id="nJtNr3qltd3_9Drh_FAR-3" value="" style="html=1;points=[];perimeter=orthogonalPerimeter;outlineConnect=0;targetShapes=umlLifeline;portConstraint=eastwest;newEdgeStyle={&quot;edgeStyle&quot;:&quot;elbowEdgeStyle&quot;,&quot;elbow&quot;:&quot;vertical&quot;,&quot;curved&quot;:0,&quot;rounded&quot;:0};" parent="nJtNr3qltd3_9Drh_FAR-2" vertex="1">
          <mxGeometry x="50" y="90" width="10" height="40" as="geometry" />
        </mxCell>
        <mxCell id="nJtNr3qltd3_9Drh_FAR-18" value="" style="html=1;points=[];perimeter=orthogonalPerimeter;outlineConnect=0;targetShapes=umlLifeline;portConstraint=eastwest;newEdgeStyle={&quot;edgeStyle&quot;:&quot;elbowEdgeStyle&quot;,&quot;elbow&quot;:&quot;vertical&quot;,&quot;curved&quot;:0,&quot;rounded&quot;:0};" parent="nJtNr3qltd3_9Drh_FAR-2" vertex="1">
          <mxGeometry x="50" y="220" width="10" height="40" as="geometry" />
        </mxCell>
        <mxCell id="aM9ryv3xv72pqoxQDRHE-3" value="/products" style="html=1;verticalAlign=bottom;startArrow=oval;endArrow=block;startSize=8;edgeStyle=elbowEdgeStyle;elbow=horizontal;curved=0;rounded=0;" parent="1" edge="1">
          <mxGeometry x="-0.5385" y="10" relative="1" as="geometry">
            <mxPoint x="135" y="109.52" as="sourcePoint" />
            <mxPoint x="200" y="109.52" as="targetPoint" />
            <mxPoint as="offset" />
          </mxGeometry>
        </mxCell>
        <mxCell id="nJtNr3qltd3_9Drh_FAR-4" value="Frontend :&lt;br&gt;React SPA" style="shape=umlLifeline;perimeter=lifelinePerimeter;whiteSpace=wrap;html=1;container=0;dropTarget=0;collapsible=0;recursiveResize=0;outlineConnect=0;portConstraint=eastwest;newEdgeStyle={&quot;edgeStyle&quot;:&quot;elbowEdgeStyle&quot;,&quot;elbow&quot;:&quot;vertical&quot;,&quot;curved&quot;:0,&quot;rounded&quot;:0};" parent="1" vertex="1">
          <mxGeometry x="150" y="40" width="110" height="380" as="geometry" />
        </mxCell>
        <mxCell id="nJtNr3qltd3_9Drh_FAR-5" value="" style="html=1;points=[];perimeter=orthogonalPerimeter;outlineConnect=0;targetShapes=umlLifeline;portConstraint=eastwest;newEdgeStyle={&quot;edgeStyle&quot;:&quot;elbowEdgeStyle&quot;,&quot;elbow&quot;:&quot;vertical&quot;,&quot;curved&quot;:0,&quot;rounded&quot;:0};" parent="nJtNr3qltd3_9Drh_FAR-4" vertex="1">
          <mxGeometry x="49" y="70" width="10" height="300" as="geometry" />
        </mxCell>
        <mxCell id="nJtNr3qltd3_9Drh_FAR-6" value="" style="html=1;points=[];perimeter=orthogonalPerimeter;outlineConnect=0;targetShapes=umlLifeline;portConstraint=eastwest;newEdgeStyle={&quot;edgeStyle&quot;:&quot;elbowEdgeStyle&quot;,&quot;elbow&quot;:&quot;vertical&quot;,&quot;curved&quot;:0,&quot;rounded&quot;:0};" parent="nJtNr3qltd3_9Drh_FAR-4" vertex="1">
          <mxGeometry x="55" y="140" width="10" height="220" as="geometry" />
        </mxCell>
        <mxCell id="nJtNr3qltd3_9Drh_FAR-21" value="" style="html=1;points=[];perimeter=orthogonalPerimeter;outlineConnect=0;targetShapes=umlLifeline;portConstraint=eastwest;newEdgeStyle={&quot;edgeStyle&quot;:&quot;elbowEdgeStyle&quot;,&quot;elbow&quot;:&quot;vertical&quot;,&quot;curved&quot;:0,&quot;rounded&quot;:0};" parent="nJtNr3qltd3_9Drh_FAR-4" vertex="1">
          <mxGeometry x="59" y="200" width="10" height="150" as="geometry" />
        </mxCell>
        <mxCell id="nJtNr3qltd3_9Drh_FAR-7" value="Admin" style="shape=umlActor;verticalLabelPosition=bottom;verticalAlign=top;html=1;outlineConnect=0;" parent="1" vertex="1">
          <mxGeometry x="90" y="60" width="30" height="60" as="geometry" />
        </mxCell>
        <mxCell id="nJtNr3qltd3_9Drh_FAR-8" value="GET /search" style="html=1;verticalAlign=bottom;endArrow=block;edgeStyle=elbowEdgeStyle;elbow=vertical;curved=0;rounded=0;" parent="1" target="aM9ryv3xv72pqoxQDRHE-2" edge="1">
          <mxGeometry relative="1" as="geometry">
            <mxPoint x="215" y="120" as="sourcePoint" />
            <Array as="points">
              <mxPoint x="300" y="120" />
            </Array>
            <mxPoint x="565" y="120" as="targetPoint" />
          </mxGeometry>
        </mxCell>
        <mxCell id="nJtNr3qltd3_9Drh_FAR-9" value="returns the list of products" style="html=1;verticalAlign=bottom;endArrow=open;edgeStyle=elbowEdgeStyle;elbow=horizontal;curved=0;rounded=0;dashed=1;endFill=0;" parent="1" target="nJtNr3qltd3_9Drh_FAR-6" edge="1">
          <mxGeometry relative="1" as="geometry">
            <mxPoint x="385" y="180" as="sourcePoint" />
            <Array as="points">
              <mxPoint x="260" y="180" />
            </Array>
            <mxPoint x="230" y="180" as="targetPoint" />
          </mxGeometry>
        </mxCell>
        <mxCell id="nJtNr3qltd3_9Drh_FAR-15" value="" style="html=1;points=[];perimeter=orthogonalPerimeter;outlineConnect=0;targetShapes=umlLifeline;portConstraint=eastwest;newEdgeStyle={&quot;edgeStyle&quot;:&quot;elbowEdgeStyle&quot;,&quot;elbow&quot;:&quot;vertical&quot;,&quot;curved&quot;:0,&quot;rounded&quot;:0};" parent="1" vertex="1">
          <mxGeometry x="385" y="250" width="10" height="140" as="geometry" />
        </mxCell>
        <mxCell id="nJtNr3qltd3_9Drh_FAR-16" value="GET product/${barcode}" style="html=1;verticalAlign=bottom;endArrow=block;edgeStyle=elbowEdgeStyle;elbow=vertical;curved=0;rounded=0;" parent="1" target="nJtNr3qltd3_9Drh_FAR-18" edge="1">
          <mxGeometry relative="1" as="geometry">
            <mxPoint x="395" y="260" as="sourcePoint" />
            <Array as="points">
              <mxPoint x="480" y="260" />
            </Array>
          </mxGeometry>
        </mxCell>
        <mxCell id="nJtNr3qltd3_9Drh_FAR-17" value="returns more information about the product" style="html=1;verticalAlign=bottom;endArrow=open;edgeStyle=elbowEdgeStyle;elbow=vertical;curved=0;rounded=0;jumpStyle=arc;dashed=1;endFill=0;" parent="1" source="nJtNr3qltd3_9Drh_FAR-18" edge="1">
          <mxGeometry relative="1" as="geometry">
            <mxPoint x="475" y="300" as="sourcePoint" />
            <Array as="points">
              <mxPoint x="490" y="300" />
            </Array>
            <mxPoint x="395" y="300" as="targetPoint" />
          </mxGeometry>
        </mxCell>
        <mxCell id="nJtNr3qltd3_9Drh_FAR-19" value="POST /products/{barcode}" style="html=1;verticalAlign=bottom;endArrow=block;edgeStyle=elbowEdgeStyle;elbow=vertical;curved=0;rounded=0;" parent="1" source="nJtNr3qltd3_9Drh_FAR-21" target="nJtNr3qltd3_9Drh_FAR-15" edge="1">
          <mxGeometry relative="1" as="geometry">
            <mxPoint x="230" y="250" as="sourcePoint" />
            <Array as="points">
              <mxPoint x="300" y="250" />
            </Array>
            <mxPoint x="565" y="250" as="targetPoint" />
          </mxGeometry>
        </mxCell>
        <mxCell id="nJtNr3qltd3_9Drh_FAR-20" value="returns success code" style="html=1;verticalAlign=bottom;endArrow=open;edgeStyle=elbowEdgeStyle;elbow=horizontal;curved=0;rounded=0;dashed=1;endFill=0;" parent="1" target="nJtNr3qltd3_9Drh_FAR-21" edge="1">
          <mxGeometry relative="1" as="geometry">
            <mxPoint x="385" y="390" as="sourcePoint" />
            <Array as="points">
              <mxPoint x="260" y="390" />
            </Array>
            <mxPoint x="225" y="390" as="targetPoint" />
          </mxGeometry>
        </mxCell>
        <mxCell id="nJtNr3qltd3_9Drh_FAR-22" value="choose to&lt;br&gt;add a product" style="html=1;verticalAlign=bottom;startArrow=oval;endArrow=block;startSize=8;edgeStyle=elbowEdgeStyle;elbow=vertical;curved=0;rounded=0;" parent="1" edge="1">
          <mxGeometry x="-0.4663" y="10" relative="1" as="geometry">
            <mxPoint x="130" y="240" as="sourcePoint" />
            <mxPoint x="205" y="240" as="targetPoint" />
            <mxPoint as="offset" />
          </mxGeometry>
        </mxCell>
        <mxCell id="nJtNr3qltd3_9Drh_FAR-23" value="store product + stock" style="html=1;verticalAlign=bottom;endArrow=block;edgeStyle=elbowEdgeStyle;elbow=vertical;curved=0;rounded=0;" parent="1" target="nJtNr3qltd3_9Drh_FAR-24" edge="1">
          <mxGeometry relative="1" as="geometry">
            <mxPoint x="395" y="340" as="sourcePoint" />
            <Array as="points">
              <mxPoint x="480" y="340" />
            </Array>
            <mxPoint x="550" y="340" as="targetPoint" />
          </mxGeometry>
        </mxCell>
        <mxCell id="nJtNr3qltd3_9Drh_FAR-25" value="returns success" style="html=1;verticalAlign=bottom;endArrow=open;edgeStyle=elbowEdgeStyle;elbow=horizontal;curved=0;rounded=0;dashed=1;endFill=0;" parent="1" source="nJtNr3qltd3_9Drh_FAR-24" edge="1">
          <mxGeometry relative="1" as="geometry">
            <mxPoint x="560" y="380" as="sourcePoint" />
            <Array as="points">
              <mxPoint x="490" y="380" />
            </Array>
            <mxPoint x="395" y="380" as="targetPoint" />
          </mxGeometry>
        </mxCell>
      </root>
    </mxGraphModel>
  </diagram>
</mxfile>
